<?xml version="1.0" standalone="no"?><!DOCTYPE svg PUBLIC "-//W3C//DTD SVG 1.1//EN" "http://www.w3.org/Graphics/SVG/1.1/DTD/svg11.dtd"><svg t="1583146503205" class="icon" viewBox="0 0 1024 1024" version="1.1" xmlns="http://www.w3.org/2000/svg" p-id="5234" xmlns:xlink="http://www.w3.org/1999/xlink" width="200" height="200"><defs><style type="text/css"></style></defs><path d="M627.2 731.7c-34.6 18.3-73.8 28.6-115.2 28.6s-80.6-10.2-115.2-28.6c29.9-45.2 33.3-105.4 4.3-155.7-28.6-49.9-82.8-77.2-137-74.2 3.4-84.1 48.2-157 115.2-199.3C404.1 351.1 454 384 512 384s107.9-32.9 132.7-81.5c10.2-19.6 16.2-41.8 16.6-65.3v-2.6c0-82.3-67-149.3-149.3-149.3s-149.3 67-149.3 149.3v2.6c-96.9 53.3-163 156.6-163 274.8 0 2.6 0 5.5 0.4 8.1-0.9 0-2.1 0.9-3 1.3-71.3 41.4-96 132.7-54.6 203.9 41.4 71.3 132.7 96 203.9 54.6 0.9-0.4 1.7-0.9 2.6-1.7 47.4 29.4 103.3 46.1 163 46.1s115.6-16.6 163-46.1c-20.1-11.9-35.9-28.1-47.8-46.5zM430.1 210.8c10.7-35.4 43.5-61.4 81.9-61.4s71.3 26 81.9 61.4c2.1 7.7 3.4 15.4 3.4 23.9 0 14.5-3.8 28.6-10.2 40.5-14.5 26.5-42.7 44.8-75.1 44.8s-60.6-18.3-75.1-44.8c-6.4-11.9-10.2-26-10.2-40.5 0-8.6 1.2-16.2 3.4-23.9zM344.7 695c-7.3 11.9-17.5 22.2-30.3 29.4-7.3 4.3-14.9 7.3-23 9-35.4 8.6-74.2-6.4-93.4-40.1-19.6-33.7-13.2-75.5 12.4-102 5.5-5.5 11.9-10.7 18.8-14.5 12.8-7.3 26.9-11.1 40.5-11.5 30.3-0.9 59.7 14.5 75.9 42.7 16.2 28.2 14.9 61.4-0.9 87z" p-id="5235" fill="#e6e6e6"></path><path d="M826.9 521.4c-0.9-0.4-2.1-1.3-3-1.3 0.4-2.6 0.4-5.5 0.4-8.1 0-118.2-66.1-221.4-163-274.8-0.4 23.5-6.4 45.7-16.6 65.3 67 42.2 111.8 115.2 115.2 199.3-54.2-3-108.4 24.3-137 74.2-29 50.3-25.6 110.5 4.3 155.7 11.9 18.3 27.7 34.6 47.8 46.5 0.9 0.9 1.7 1.3 2.6 1.7 71.3 41.4 162.6 16.6 203.9-54.6 41.4-71.2 16.6-162.5-54.6-203.9z m-0.9 171.9c-19.2 33.7-58 48.6-93.4 40.1-8.1-1.7-15.8-4.7-23-9-12.8-7.3-23-17.5-30.3-29.4-15.8-25.6-17.1-58.9-0.9-87 16.2-28.2 45.7-43.5 75.9-42.7 13.7 0.4 27.7 4.3 40.5 11.5 6.8 3.8 13.2 9 18.8 14.5 25.7 26.5 32.1 68.3 12.4 102z" fill="#e6e6e6" p-id="5236"></path></svg>