<?xml version="1.0" standalone="no"?><!DOCTYPE svg PUBLIC "-//W3C//DTD SVG 1.1//EN" "http://www.w3.org/Graphics/SVG/1.1/DTD/svg11.dtd"><svg t="1557455079263" class="icon" style="" viewBox="0 0 1024 1024" version="1.1" xmlns="http://www.w3.org/2000/svg" p-id="3601" xmlns:xlink="http://www.w3.org/1999/xlink" width="200" height="200"><defs><style type="text/css"></style></defs><path d="M573.673 467.9H848.93v41.812H573.673V467.9m0 0zM573.673 384.138H848.93v41.814H573.673v-41.814m0 0z" p-id="3602"></path><path d="M886.578 827.701H133.815c-39.29 0-71.255-31.965-71.255-71.255V307.638c0-39.29 31.965-71.255 71.255-71.255h752.763c39.29 0 74.325 31.965 74.325 71.255v448.81c0 39.29-35.034 71.253-74.325 71.253zM133.815 278.297c-16.179 0-29.34 13.163-29.34 29.34v448.81c0 16.178 13.161 29.34 29.34 29.34h752.763c16.179 0 32.41-13.162 32.41-29.34v-448.81c0-16.177-16.231-29.34-32.41-29.34H133.815z" p-id="3603"></path><path d="M172.298 574.993h313.946v33.794H355.486v33.795c0 10.527-2.605 18.58-7.817 24.162-5.211 5.578-13.292 8.685-24.24 9.317-10.951 0.63-26.057 0.947-45.324 0.947-2.738-13.896-5.476-25.689-8.212-35.374 11.79 0.632 22.425 0.948 31.9 0.948 7.368 0 11.055-4.528 11.055-13.58v-20.215h-52.745l20.213 27.163-86.856 39.796c-7.58-13.055-15.057-24.635-22.425-34.742 18.423-5.37 45.64-16.108 81.646-32.216h-80.383v-33.795z m19.267-144.656h78.013v-19.582H180.51v-32.848h297.207v32.848h-88.435v19.582h78.328v82.435H191.565v-82.435z m3.158 97.595H463.82V559.2H194.723v-31.268z m37.585-45.481h37.269v-21.793h-37.27v21.793z m78.329-52.114h37.585v-19.582h-37.585v19.582z m0 52.114h37.585v-21.793h-37.585v21.793z m83.066 127.284c26.53 9.056 56.324 19.583 89.383 31.584l-18.634 33.164c-25.267-10.739-54.747-22.425-88.435-35.059l17.686-29.689z m33.163-127.284v-21.793h-37.585v21.793h37.585zM771.794 753.282c-60.89 0-108.586-28.818-108.586-65.608s47.696-65.61 108.586-65.61 108.587 28.82 108.587 65.61-47.697 65.608-108.587 65.608z m0-110.751c-24.541 0-47.457 5.292-64.527 14.902-15.214 8.567-23.594 19.307-23.594 30.241s8.379 21.674 23.594 30.24c17.07 9.61 39.985 14.902 64.527 14.902s47.457-5.292 64.527-14.902c15.215-8.566 23.595-19.306 23.595-30.24s-8.379-21.674-23.595-30.24c-17.07-9.61-39.986-14.903-64.527-14.903z" p-id="3604"></path></svg>