<?xml version="1.0" standalone="no"?><!DOCTYPE svg PUBLIC "-//W3C//DTD SVG 1.1//EN" "http://www.w3.org/Graphics/SVG/1.1/DTD/svg11.dtd"><svg t="1557543087150" class="icon" style="" viewBox="0 0 1024 1024" version="1.1" xmlns="http://www.w3.org/2000/svg" p-id="5500" xmlns:xlink="http://www.w3.org/1999/xlink" width="200" height="200"><defs><style type="text/css"></style></defs><path d="M512 1024C229.239467 1024 0 794.760533 0 512 0 229.239467 229.239467 0 512 0c282.760533 0 512 229.239467 512 512 0 282.760533-229.239467 512-512 512z m313.821867-716.8H198.178133c-33.8944 0-24.098133 37.444267-24.098133 83.182933v27.7504h675.84v-27.7504c0-45.738667 9.796267-83.182933-24.098133-83.182933zM174.08 455.099733v218.146134c0 42.734933-9.796267 77.687467 24.098133 77.687466h627.643734c33.8944 0 24.098133-34.952533 24.098133-77.687466v-218.112H174.08z" p-id="5501" fill="#feba21"></path><path d="M580.266667 626.551467c0 5.461333-3.959467 9.9328-8.8064 9.9328H521.216v36.283733c0 5.461333-3.925333 9.898667-8.772267 9.898667h-0.8192c-4.846933 0-8.772267-4.437333-8.772266-9.898667v-36.283733h-50.312534c-4.846933 0-8.772267-4.437333-8.772266-9.9328v-1.092267c0-5.461333 3.925333-9.9328 8.772266-9.9328h50.312534v-19.319467h-38.5024c-4.8128 0-8.772267-4.437333-8.772267-9.9328v-0.887466c0-5.461333 3.959467-9.9328 8.772267-9.9328h37.9904L460.1856 529.066667a10.513067 10.513067 0 0 1-2.6624-7.0656c0-2.696533 0.955733-5.2224 2.6624-7.099734a8.3968 8.3968 0 0 1 6.314667-2.901333c2.389333 0 4.642133 1.024 6.314666 2.901333l39.253334 43.793067 39.150933-43.656533a8.465067 8.465067 0 0 1 6.314667-2.901334c2.389333 0 4.608 1.024 6.280533 2.901334 1.706667 1.8432 2.628267 4.369067 2.6624 7.031466a10.513067 10.513067 0 0 1-2.6624 7.099734l-41.506133 46.2848h37.341866c4.881067 0 8.8064 4.471467 8.8064 9.966933v0.853333c0 5.495467-3.925333 9.9328-8.8064 9.9328H521.216v19.319467h50.312533c4.846933 0 8.772267 4.437333 8.772267 9.9328v1.092267z" p-id="5502" fill="#feba21"></path></svg>