<?xml version="1.0" standalone="no"?><!DOCTYPE svg PUBLIC "-//W3C//DTD SVG 1.1//EN" "http://www.w3.org/Graphics/SVG/1.1/DTD/svg11.dtd"><svg t="1557455121173" class="icon" style="" viewBox="0 0 1024 1024" version="1.1" xmlns="http://www.w3.org/2000/svg" p-id="4040" xmlns:xlink="http://www.w3.org/1999/xlink" width="200" height="200"><defs><style type="text/css"></style></defs><path d="M529.237333 707.925333l-288.426667 0c-16.042667 0-28.842667 12.970667-28.842667 28.842667 0 16.042667 12.970667 28.842667 28.842667 28.842667l288.426667 0c16.042667 0 28.842667-12.970667 28.842667-28.842667C558.08 720.725333 545.109333 707.925333 529.237333 707.925333z" p-id="4041"></path><path d="M529.237333 592.725333l-288.426667 0c-16.042667 0-28.842667 12.970667-28.842667 28.842667 0 16.042667 12.970667 28.842667 28.842667 28.842667l288.426667 0c16.042667 0 28.842667-12.970667 28.842667-28.842667C558.08 605.525333 545.109333 592.725333 529.237333 592.725333z" p-id="4042"></path><path d="M625.493333 275.456l105.642667 0 0 59.221333c0 0 42.837333-42.837333 57.685333-51.029333l0-37.376L616.277333 73.557333 154.282667 73.557333c-31.744 0-57.685333 25.770667-57.685333 57.685333l0 720.896c0 31.744 25.770667 57.856 57.685333 57.856 0 0 222.208 0 394.581333 0l9.045333-57.856L154.282667 852.138667 154.282667 131.413333l432.469333 0 0 105.813333C586.922667 258.389333 604.16 275.626667 625.493333 275.456L625.493333 275.456z" p-id="4043"></path><path d="M529.237333 477.354667l-288.426667 0c-16.042667 0-28.842667 12.970667-28.842667 28.842667 0 16.042667 12.970667 28.842667 28.842667 28.842667l288.426667 0c16.042667 0 28.842667-12.970667 28.842667-28.842667C558.08 490.154667 545.109333 477.354667 529.237333 477.354667z" p-id="4044"></path><path d="M767.658667 359.253333l-90.794667 161.109333c-6.826667 12.117333-2.730667 27.648 9.045333 34.645333 11.776 6.997333 26.965333 2.901333 33.792-9.216l90.794667-161.109333c6.826667-12.117333 2.730667-27.648-9.045333-34.645333C789.674667 343.04 774.656 347.136 767.658667 359.253333z" p-id="4045"></path><path d="M529.237333 246.613333l-288.426667 0c-16.042667 0-28.842667 12.970667-28.842667 28.842667 0 16.042667 12.970667 28.842667 28.842667 28.842667l288.426667 0c16.042667 0 28.842667-12.970667 28.842667-28.842667C558.08 259.413333 545.109333 246.613333 529.237333 246.613333z" p-id="4046"></path><path d="M529.237333 361.984l-288.426667 0c-16.042667 0-28.842667 12.970667-28.842667 28.842667 0 16.042667 12.970667 28.842667 28.842667 28.842667l288.426667 0c16.042667 0 28.842667-12.970667 28.842667-28.842667C558.08 374.784 545.109333 361.984 529.237333 361.984z" p-id="4047"></path><path d="M902.997333 408.064 902.997333 408.064c-20.821333-12.629333-53.589333-9.728-66.730667 12.8l-84.309333 149.674667 89.941333 53.248 84.309333-149.674667C937.813333 453.802667 926.72 422.4 902.997333 408.064L902.997333 408.064z" p-id="4048"></path><path d="M618.666667 807.082667c-8.874667 15.701333-28.501333 87.893333-18.602667 117.418667l0.341333 1.024-9.898667 17.237333c-2.56 4.437333-0.682667 10.24 4.096 13.141333 4.437333 2.56 10.410667 1.706667 13.141333-2.901333l10.410667-18.090667 1.024-0.341333c30.890667-7.168 79.36-56.32 89.6-74.069333l115.541333-204.970667L733.866667 602.453333 618.666667 807.082667 618.666667 807.082667z" p-id="4049"></path></svg>